{"title":"The Mummy-Tomb Of The Dragon Emperor - AVM","uid":5045316,"size":357731176,"categoryP":"video","categoryS":"handheld","magnet":"?xt=urn:btih:ad2960c5040e0737a8b550bce595ad70bc1fa65d&amp;dn=The+Mummy-Tomb+Of+The+Dragon+Emperor+-+AVM&amp;tr=udp%3A%2F%2Ftracker.openbittorrent.com%3A80&amp;tr=udp%3A%2F%2Fopen.demonii.com%3A1337&amp;tr=udp%3A%2F%2Ftracker.coppersurfer.tk%3A6969&amp;tr=udp%3A%2F%2Fexodus.desync.com%3A6969","seeders":0,"leechers":0,"uploader":"AVIDM","files":1,"time":1249595669,"description":"AVIDMobile - http://www.avidmobile.com.ar (Mobile media)\n\nVideo\nID                               : 1\nFormat                           : MPEG-4 Visual\nFormat profile                   : Advanced Simple@L5\nFormat settings, BVOP            : Yes\nFormat settings, QPel            : No\nFormat settings, GMC             : No warppoints\nFormat settings, Matrix          : Default (H.263)\nCodec ID                         : 20\nDuration                         : 1h 47mn\nBit rate mode                    : Variable\nBit rate                         : 379 Kbps\nMaximum bit rate                 : 1 238 Kbps\nWidth                            : 320 pixels\nHeight                           : 240 pixels\nDisplay aspect ratio             : 4/3\nFrame rate mode                  : Variable\nFrame rate                       : 23.976 fps\nMinimum frame rate               : 23.974 fps\nMaximum frame rate               : 23.981 fps\nResolution                       : 24 bits\nColorimetry                      : 4:2:0\nScan type                        : Progressive\nBits/(Pixel*Frame)               : 0.206\nStream size                      : 290 MiB (85%)\n\nAudio\nID                               : 2\nFormat                           : AAC\nFormat/Info                      : Advanced Audio Codec\nFormat version                   : Version 4\nFormat profile                   : LC\nFormat settings, SBR             : No\nCodec ID                         : 40\nDuration                         : 1h 47mn\nBit rate mode                    : Variable\nBit rate                         : 62.9 Kbps\nMaximum bit rate                 : 123 Kbps\nChannel(s)                       : 2 channels\nChannel positions                : L R\nSampling rate                    : 22.05 KHz\nResolution                       : 16 bits\nStream size                      : 48.2 MiB (14%)","torrent":{"xt":"urn:btih:ad2960c5040e0737a8b550bce595ad70bc1fa65d","amp;dn":"The+Mummy-Tomb+Of+The+Dragon+Emperor+-+AVM","amp;tr":["udp%3A%2F%2Ftracker.openbittorrent.com%3A80","udp%3A%2F%2Fopen.demonii.com%3A1337","udp%3A%2F%2Ftracker.coppersurfer.tk%3A6969","udp%3A%2F%2Fexodus.desync.com%3A6969"],"infoHash":"ad2960c5040e0737a8b550bce595ad70bc1fa65d","infoHashBuffer":{"type":"Buffer","data":[173,41,96,197,4,14,7,55,168,181,80,188,229,149,173,112,188,31,166,93]},"announce":[],"urlList":[]}}